<svg xmlns="http://www.w3.org/2000/svg" xmlns:xlink="http://www.w3.org/1999/xlink" width="500" zoomAndPan="magnify" viewBox="0 0 375 374.999991" height="500" preserveAspectRatio="xMidYMid meet" version="1.0"><defs><clipPath id="e402f86d53"><path d="M 70.003906 49.988281 L 283 49.988281 L 283 314 L 70.003906 314 Z M 70.003906 49.988281 " clip-rule="nonzero"/></clipPath><clipPath id="5e8385322d"><path d="M 201.300781 165 L 337.800781 165 L 337.800781 228 L 201.300781 228 Z M 201.300781 165 " clip-rule="nonzero"/></clipPath><clipPath id="11676ba9cb"><path d="M 223 149.9375 L 316 149.9375 L 316 242.9375 L 223 242.9375 Z M 223 149.9375 " clip-rule="nonzero"/></clipPath></defs><g clip-path="url(#e402f86d53)"><path fill="#ffffff" d="M 205.988281 244.917969 C 231.820312 204.246094 260.054688 159.097656 260.054688 134.503906 C 260.054688 87.890625 222.136719 49.96875 175.53125 49.96875 C 128.917969 49.96875 90.996094 87.890625 90.996094 134.503906 C 90.996094 157.679688 120.347656 205.285156 145.328125 245.054688 C 108.742188 248.507812 70.132812 258.941406 70.132812 278.632812 C 70.132812 289.355469 81.738281 298.40625 103.695312 304.800781 C 165.617188 322.832031 282.714844 312.6875 282.714844 278.632812 C 282.714844 258.617188 243.308594 248.226562 205.988281 244.917969 Z M 175.53125 272.171875 C 153.390625 235.003906 102.363281 160.894531 102.363281 134.503906 C 102.363281 94.15625 135.1875 61.335938 175.53125 61.335938 C 215.871094 61.335938 248.6875 94.15625 248.6875 134.503906 C 248.6875 162.621094 197.910156 234.679688 175.53125 272.171875 Z M 175.53125 272.171875 " fill-opacity="1" fill-rule="nonzero"/></g><path fill="#ffffff" d="M 175.53125 90.605469 C 152.96875 90.605469 134.609375 108.960938 134.609375 131.53125 C 134.609375 154.085938 152.96875 172.4375 175.53125 172.4375 C 198.089844 172.4375 216.441406 154.085938 216.441406 131.53125 C 216.441406 108.960938 198.089844 90.605469 175.53125 90.605469 Z M 175.53125 161.070312 C 159.234375 161.070312 145.976562 147.820312 145.976562 131.53125 C 145.976562 115.230469 159.234375 101.96875 175.53125 101.96875 C 191.820312 101.96875 205.074219 115.230469 205.074219 131.53125 C 205.074219 147.820312 191.820312 161.070312 175.53125 161.070312 Z M 175.53125 161.070312 " fill-opacity="1" fill-rule="nonzero"/><g clip-path="url(#5e8385322d)"><path fill="#ffffff" d="M 337.433594 203.996094 C 337.433594 217.996094 327.328125 227.25 314.859375 227.25 L 223.933594 227.25 C 211.472656 227.25 201.363281 216.84375 201.363281 203.996094 L 201.363281 188.65625 C 201.363281 175.808594 211.472656 165.398438 223.933594 165.398438 L 314.859375 165.398438 C 327.328125 165.398438 337.433594 175.808594 337.433594 188.65625 Z M 337.433594 203.996094 " fill-opacity="1" fill-rule="nonzero"/></g><g clip-path="url(#11676ba9cb)"><path fill="#ffffff" d="M 315.484375 196.324219 C 315.484375 197.84375 315.410156 199.359375 315.261719 200.871094 C 315.113281 202.386719 314.894531 203.886719 314.597656 205.375 C 314.304688 206.867188 313.9375 208.339844 313.5 209.792969 C 313.0625 211.246094 312.554688 212.675781 311.976562 214.078125 C 311.398438 215.480469 310.753906 216.855469 310.042969 218.195312 C 309.332031 219.535156 308.554688 220.835938 307.71875 222.097656 C 306.878906 223.363281 305.980469 224.582031 305.023438 225.753906 C 304.066406 226.929688 303.054688 228.054688 301.984375 229.128906 C 300.917969 230.203125 299.800781 231.222656 298.636719 232.183594 C 297.46875 233.148438 296.257812 234.054688 295.003906 234.898438 C 293.746094 235.742188 292.453125 236.519531 291.125 237.238281 C 289.792969 237.953125 288.429688 238.601562 287.035156 239.183594 C 285.640625 239.765625 284.222656 240.277344 282.777344 240.71875 C 281.332031 241.160156 279.871094 241.527344 278.390625 241.824219 C 276.910156 242.121094 275.417969 242.34375 273.914062 242.492188 C 272.414062 242.640625 270.90625 242.714844 269.398438 242.714844 C 267.890625 242.714844 266.382812 242.640625 264.882812 242.492188 C 263.378906 242.34375 261.886719 242.121094 260.40625 241.824219 C 258.925781 241.527344 257.464844 241.160156 256.019531 240.71875 C 254.578125 240.277344 253.15625 239.765625 251.761719 239.183594 C 250.367188 238.601562 249.003906 237.953125 247.675781 237.238281 C 246.34375 236.519531 245.050781 235.742188 243.796875 234.898438 C 242.539062 234.054688 241.328125 233.148438 240.164062 232.183594 C 238.996094 231.222656 237.878906 230.203125 236.8125 229.128906 C 235.742188 228.054688 234.730469 226.929688 233.773438 225.753906 C 232.816406 224.582031 231.917969 223.363281 231.078125 222.097656 C 230.242188 220.835938 229.464844 219.535156 228.753906 218.195312 C 228.042969 216.855469 227.398438 215.480469 226.820312 214.078125 C 226.242188 212.675781 225.734375 211.246094 225.296875 209.792969 C 224.859375 208.339844 224.492188 206.867188 224.199219 205.375 C 223.902344 203.886719 223.683594 202.386719 223.535156 200.871094 C 223.386719 199.359375 223.3125 197.84375 223.3125 196.324219 C 223.3125 194.808594 223.386719 193.292969 223.535156 191.777344 C 223.683594 190.265625 223.902344 188.765625 224.199219 187.277344 C 224.492188 185.785156 224.859375 184.3125 225.296875 182.859375 C 225.734375 181.40625 226.242188 179.976562 226.820312 178.574219 C 227.398438 177.171875 228.042969 175.796875 228.753906 174.457031 C 229.464844 173.117188 230.242188 171.816406 231.078125 170.554688 C 231.917969 169.289062 232.816406 168.070312 233.773438 166.898438 C 234.730469 165.722656 235.742188 164.597656 236.8125 163.523438 C 237.878906 162.449219 238.996094 161.429688 240.164062 160.46875 C 241.328125 159.503906 242.539062 158.597656 243.796875 157.753906 C 245.050781 156.910156 246.34375 156.132812 247.675781 155.414062 C 249.003906 154.699219 250.367188 154.050781 251.761719 153.46875 C 253.15625 152.886719 254.578125 152.375 256.019531 151.933594 C 257.464844 151.492188 258.925781 151.125 260.40625 150.828125 C 261.886719 150.53125 263.378906 150.308594 264.882812 150.160156 C 266.382812 150.011719 267.890625 149.9375 269.398438 149.9375 C 270.90625 149.9375 272.414062 150.011719 273.914062 150.160156 C 275.417969 150.308594 276.910156 150.53125 278.390625 150.828125 C 279.871094 151.125 281.332031 151.492188 282.777344 151.933594 C 284.222656 152.375 285.640625 152.886719 287.035156 153.46875 C 288.429688 154.050781 289.792969 154.699219 291.125 155.414062 C 292.453125 156.132812 293.746094 156.910156 295.003906 157.753906 C 296.257812 158.597656 297.46875 159.503906 298.636719 160.46875 C 299.800781 161.429688 300.917969 162.449219 301.984375 163.523438 C 303.054688 164.597656 304.066406 165.722656 305.023438 166.898438 C 305.980469 168.070312 306.878906 169.289062 307.71875 170.554688 C 308.554688 171.816406 309.332031 173.117188 310.042969 174.457031 C 310.753906 175.796875 311.398438 177.171875 311.976562 178.574219 C 312.554688 179.976562 313.0625 181.40625 313.5 182.859375 C 313.9375 184.3125 314.304688 185.785156 314.597656 187.277344 C 314.894531 188.765625 315.113281 190.265625 315.261719 191.777344 C 315.410156 193.292969 315.484375 194.808594 315.484375 196.324219 Z M 315.484375 196.324219 " fill-opacity="1" fill-rule="nonzero"/></g><path fill="#a20000" d="M 247.75 180.863281 L 239.289062 180.863281 L 236.699219 198.984375 L 233.488281 180.949219 L 225.886719 180.949219 L 222.589844 198.984375 L 220.085938 180.949219 L 211.460938 180.949219 L 218.671875 211.789062 L 226.277344 211.789062 L 229.566406 192.78125 L 232.933594 211.789062 L 240.617188 211.789062 Z M 247.75 180.863281 " fill-opacity="1" fill-rule="nonzero"/><path fill="#a20000" d="M 253.9375 190.140625 L 261.691406 190.140625 L 261.691406 211.789062 L 253.9375 211.789062 Z M 253.9375 190.140625 " fill-opacity="1" fill-rule="nonzero"/><path fill="#a20000" d="M 261.667969 183.171875 C 261.667969 185.316406 259.933594 187.046875 257.800781 187.046875 C 255.667969 187.046875 253.9375 185.316406 253.9375 183.171875 C 253.9375 181.019531 255.667969 179.28125 257.800781 179.28125 C 259.933594 179.28125 261.667969 181.019531 261.667969 183.171875 Z M 261.667969 183.171875 " fill-opacity="1" fill-rule="nonzero"/><path fill="#a20000" d="M 314.429688 171.585938 C 299.53125 171.585938 289.753906 171.585938 289.753906 171.585938 C 289.753906 171.585938 272.492188 172.183594 272.492188 189.875 L 272.492188 203.285156 C 272.492188 203.285156 272.804688 212.378906 263.214844 221.066406 L 315.121094 221.066406 C 315.121094 221.066406 331.25 221.066406 331.25 203.894531 C 331.25 188.804688 331.25 188.804688 331.25 188.804688 C 331.25 188.804688 330.546875 171.585938 314.429688 171.585938 Z M 310.652344 188.191406 L 293.175781 188.191406 L 293.175781 195.105469 L 308.929688 195.105469 L 308.929688 202.355469 L 293.175781 202.355469 L 293.175781 211.789062 L 284.863281 211.789062 L 284.863281 180.863281 L 310.652344 180.863281 Z M 319.652344 179.28125 C 321.785156 179.28125 323.519531 181.019531 323.519531 183.171875 C 323.519531 185.316406 321.785156 187.046875 319.652344 187.046875 C 317.523438 187.046875 315.789062 185.316406 315.789062 183.171875 C 315.789062 181.019531 317.523438 179.28125 319.652344 179.28125 Z M 323.542969 211.789062 L 315.789062 211.789062 L 315.789062 190.140625 L 323.542969 190.140625 Z M 323.542969 211.789062 " fill-opacity="1" fill-rule="nonzero"/></svg>