<svg xmlns="http://www.w3.org/2000/svg" xmlns:xlink="http://www.w3.org/1999/xlink" width="500" zoomAndPan="magnify" viewBox="0 0 375 374.999991" height="500" preserveAspectRatio="xMidYMid meet" version="1.0"><defs><clipPath id="06afed8b8d"><path d="M 50.511719 93 L 324.257812 93 L 324.257812 288 L 50.511719 288 Z M 50.511719 93 " clip-rule="nonzero"/></clipPath></defs><g clip-path="url(#06afed8b8d)"><path fill="#ffffff" d="M 306.953125 213.902344 L 68.039062 213.902344 C 67.574219 213.902344 67.125 213.992188 66.695312 214.171875 C 66.265625 214.347656 65.886719 214.601562 65.554688 214.933594 C 65.226562 215.261719 64.972656 215.640625 64.796875 216.070312 C 64.617188 216.503906 64.527344 216.949219 64.527344 217.417969 L 64.527344 252.539062 C 64.527344 253.007812 64.617188 253.453125 64.796875 253.886719 C 64.972656 254.316406 65.226562 254.695312 65.554688 255.023438 C 65.886719 255.355469 66.265625 255.609375 66.695312 255.785156 C 67.125 255.964844 67.574219 256.054688 68.039062 256.054688 L 306.953125 256.054688 C 307.417969 256.054688 307.867188 255.964844 308.296875 255.785156 C 308.726562 255.609375 309.105469 255.355469 309.4375 255.023438 C 309.765625 254.695312 310.019531 254.316406 310.195312 253.886719 C 310.375 253.453125 310.464844 253.007812 310.464844 252.539062 L 310.464844 217.417969 C 310.464844 216.949219 310.375 216.503906 310.195312 216.070312 C 310.019531 215.640625 309.765625 215.261719 309.4375 214.933594 C 309.105469 214.601562 308.726562 214.347656 308.296875 214.171875 C 307.867188 213.992188 307.417969 213.902344 306.953125 213.902344 Z M 101.28125 249.027344 C 100.359375 249.027344 99.445312 248.9375 98.539062 248.757812 C 97.636719 248.578125 96.757812 248.3125 95.902344 247.960938 C 95.050781 247.605469 94.242188 247.171875 93.476562 246.660156 C 92.707031 246.148438 92 245.566406 91.347656 244.914062 C 90.695312 244.261719 90.113281 243.550781 89.597656 242.785156 C 89.085938 242.015625 88.652344 241.207031 88.300781 240.355469 C 87.949219 239.503906 87.679688 238.625 87.5 237.71875 C 87.320312 236.816406 87.230469 235.902344 87.230469 234.980469 C 87.230469 234.054688 87.320312 233.140625 87.5 232.238281 C 87.679688 231.332031 87.949219 230.453125 88.300781 229.601562 C 88.652344 228.75 89.085938 227.941406 89.597656 227.171875 C 90.113281 226.40625 90.695312 225.695312 91.347656 225.042969 C 92 224.390625 92.707031 223.808594 93.476562 223.296875 C 94.242188 222.785156 95.050781 222.351562 95.902344 222 C 96.757812 221.644531 97.636719 221.378906 98.539062 221.199219 C 99.445312 221.019531 100.359375 220.929688 101.28125 220.929688 C 102.203125 220.929688 103.117188 221.019531 104.023438 221.199219 C 104.925781 221.378906 105.804688 221.644531 106.65625 222 C 107.511719 222.351562 108.320312 222.785156 109.085938 223.296875 C 109.855469 223.808594 110.5625 224.390625 111.214844 225.042969 C 111.867188 225.695312 112.449219 226.40625 112.964844 227.171875 C 113.476562 227.941406 113.910156 228.75 114.261719 229.601562 C 114.613281 230.453125 114.878906 231.332031 115.0625 232.238281 C 115.242188 233.140625 115.332031 234.054688 115.332031 234.980469 C 115.328125 235.902344 115.238281 236.8125 115.054688 237.71875 C 114.875 238.621094 114.605469 239.5 114.253906 240.351562 C 113.898438 241.203125 113.464844 242.011719 112.953125 242.777344 C 112.441406 243.542969 111.859375 244.253906 111.207031 244.902344 C 110.554688 245.554688 109.84375 246.136719 109.078125 246.652344 C 108.3125 247.164062 107.503906 247.597656 106.652344 247.949219 C 105.800781 248.304688 104.921875 248.570312 104.019531 248.753906 C 103.117188 248.933594 102.203125 249.027344 101.28125 249.027344 Z M 139.949219 249.027344 C 139.027344 249.027344 138.113281 248.9375 137.210938 248.757812 C 136.304688 248.578125 135.425781 248.3125 134.574219 247.960938 C 133.722656 247.605469 132.910156 247.171875 132.144531 246.660156 C 131.378906 246.148438 130.667969 245.566406 130.015625 244.914062 C 129.363281 244.261719 128.78125 243.550781 128.269531 242.785156 C 127.753906 242.015625 127.324219 241.207031 126.96875 240.355469 C 126.617188 239.503906 126.351562 238.625 126.171875 237.71875 C 125.988281 236.816406 125.898438 235.902344 125.898438 234.980469 C 125.898438 234.054688 125.988281 233.140625 126.171875 232.238281 C 126.351562 231.332031 126.617188 230.453125 126.96875 229.601562 C 127.324219 228.75 127.753906 227.941406 128.269531 227.171875 C 128.78125 226.40625 129.363281 225.695312 130.015625 225.042969 C 130.667969 224.390625 131.378906 223.808594 132.144531 223.296875 C 132.910156 222.785156 133.722656 222.351562 134.574219 222 C 135.425781 221.644531 136.304688 221.378906 137.210938 221.199219 C 138.113281 221.019531 139.027344 220.929688 139.949219 220.929688 C 140.871094 220.929688 141.785156 221.019531 142.691406 221.199219 C 143.597656 221.378906 144.472656 221.644531 145.328125 222 C 146.179688 222.351562 146.988281 222.785156 147.753906 223.296875 C 148.523438 223.808594 149.234375 224.390625 149.886719 225.042969 C 150.539062 225.695312 151.121094 226.40625 151.632812 227.171875 C 152.144531 227.941406 152.578125 228.75 152.929688 229.601562 C 153.285156 230.453125 153.550781 231.332031 153.730469 232.238281 C 153.910156 233.140625 154 234.054688 154 234.980469 C 153.996094 235.894531 153.90625 236.804688 153.726562 237.703125 C 153.546875 238.601562 153.285156 239.472656 152.933594 240.320312 C 152.585938 241.167969 152.15625 241.972656 151.648438 242.738281 C 151.140625 243.5 150.566406 244.207031 149.921875 244.859375 C 149.277344 245.511719 148.574219 246.09375 147.816406 246.605469 C 147.054688 247.121094 146.253906 247.558594 145.410156 247.914062 C 144.566406 248.273438 143.695312 248.542969 142.796875 248.730469 C 141.902344 248.917969 140.996094 249.019531 140.078125 249.027344 Z M 283.992188 238.492188 L 168.335938 238.492188 C 167.871094 238.492188 167.421875 238.402344 166.992188 238.222656 C 166.5625 238.046875 166.183594 237.792969 165.851562 237.460938 C 165.523438 237.132812 165.269531 236.753906 165.09375 236.324219 C 164.914062 235.890625 164.824219 235.445312 164.824219 234.980469 C 164.824219 234.511719 164.914062 234.066406 165.09375 233.632812 C 165.269531 233.203125 165.523438 232.824219 165.851562 232.496094 C 166.183594 232.164062 166.5625 231.910156 166.992188 231.734375 C 167.421875 231.554688 167.871094 231.464844 168.335938 231.464844 L 284.121094 231.464844 C 284.585938 231.464844 285.035156 231.554688 285.464844 231.734375 C 285.894531 231.910156 286.273438 232.164062 286.605469 232.496094 C 286.933594 232.824219 287.1875 233.203125 287.367188 233.632812 C 287.542969 234.066406 287.632812 234.511719 287.632812 234.980469 C 287.632812 235.445312 287.542969 235.890625 287.367188 236.324219 C 287.1875 236.753906 286.933594 237.132812 286.605469 237.460938 C 286.273438 237.792969 285.894531 238.046875 285.464844 238.222656 C 285.035156 238.402344 284.585938 238.492188 284.121094 238.492188 Z M 108.371094 234.980469 C 108.371094 235.441406 108.324219 235.898438 108.234375 236.347656 C 108.144531 236.800781 108.011719 237.242188 107.835938 237.667969 C 107.660156 238.09375 107.441406 238.496094 107.1875 238.882812 C 106.929688 239.265625 106.636719 239.621094 106.3125 239.945312 C 105.984375 240.273438 105.632812 240.5625 105.246094 240.820312 C 104.863281 241.074219 104.460938 241.292969 104.03125 241.46875 C 103.605469 241.644531 103.167969 241.777344 102.714844 241.867188 C 102.261719 241.957031 101.804688 242.003906 101.34375 242.003906 C 100.882812 242.003906 100.425781 241.957031 99.972656 241.867188 C 99.523438 241.777344 99.082031 241.644531 98.65625 241.46875 C 98.230469 241.292969 97.824219 241.074219 97.441406 240.820312 C 97.058594 240.5625 96.703125 240.273438 96.378906 239.945312 C 96.050781 239.621094 95.761719 239.265625 95.503906 238.882812 C 95.246094 238.496094 95.03125 238.09375 94.855469 237.667969 C 94.679688 237.242188 94.542969 236.800781 94.453125 236.347656 C 94.363281 235.898438 94.320312 235.441406 94.320312 234.980469 C 94.320312 234.515625 94.363281 234.058594 94.453125 233.609375 C 94.542969 233.15625 94.679688 232.714844 94.855469 232.289062 C 95.03125 231.863281 95.246094 231.460938 95.503906 231.074219 C 95.761719 230.691406 96.050781 230.335938 96.378906 230.011719 C 96.703125 229.683594 97.058594 229.394531 97.441406 229.136719 C 97.824219 228.882812 98.230469 228.664062 98.65625 228.488281 C 99.082031 228.3125 99.523438 228.179688 99.972656 228.089844 C 100.425781 228 100.882812 227.953125 101.34375 227.953125 C 101.808594 227.949219 102.269531 227.992188 102.722656 228.078125 C 103.179688 228.164062 103.621094 228.296875 104.054688 228.46875 C 104.484375 228.644531 104.890625 228.859375 105.277344 229.117188 C 105.664062 229.371094 106.023438 229.660156 106.351562 229.988281 C 106.683594 230.316406 106.976562 230.671875 107.238281 231.054688 C 107.496094 231.441406 107.714844 231.847656 107.894531 232.277344 C 108.070312 232.703125 108.207031 233.144531 108.296875 233.601562 C 108.386719 234.054688 108.433594 234.515625 108.433594 234.980469 Z M 147.039062 234.980469 C 147.039062 235.441406 146.992188 235.898438 146.902344 236.347656 C 146.8125 236.800781 146.679688 237.242188 146.503906 237.667969 C 146.328125 238.09375 146.109375 238.496094 145.855469 238.882812 C 145.597656 239.265625 145.308594 239.621094 144.980469 239.945312 C 144.65625 240.273438 144.300781 240.5625 143.917969 240.820312 C 143.535156 241.074219 143.128906 241.292969 142.703125 241.46875 C 142.277344 241.644531 141.835938 241.777344 141.382812 241.867188 C 140.933594 241.957031 140.476562 242.003906 140.015625 242.003906 C 139.550781 242.003906 139.097656 241.957031 138.644531 241.867188 C 138.191406 241.777344 137.75 241.644531 137.324219 241.46875 C 136.898438 241.292969 136.496094 241.074219 136.109375 240.820312 C 135.726562 240.5625 135.371094 240.273438 135.046875 239.945312 C 134.71875 239.621094 134.429688 239.265625 134.171875 238.882812 C 133.917969 238.496094 133.699219 238.09375 133.523438 237.667969 C 133.347656 237.242188 133.214844 236.800781 133.125 236.347656 C 133.035156 235.898438 132.988281 235.441406 132.988281 234.980469 C 132.988281 234.515625 133.035156 234.058594 133.125 233.609375 C 133.214844 233.15625 133.347656 232.714844 133.523438 232.289062 C 133.699219 231.863281 133.917969 231.460938 134.171875 231.074219 C 134.429688 230.691406 134.71875 230.335938 135.046875 230.011719 C 135.371094 229.683594 135.726562 229.394531 136.109375 229.136719 C 136.496094 228.882812 136.898438 228.664062 137.324219 228.488281 C 137.75 228.3125 138.191406 228.179688 138.644531 228.089844 C 139.097656 228 139.550781 227.953125 140.015625 227.953125 C 140.476562 227.953125 140.9375 227.996094 141.390625 228.082031 C 141.847656 228.171875 142.289062 228.304688 142.71875 228.480469 C 143.144531 228.652344 143.554688 228.871094 143.941406 229.125 C 144.328125 229.382812 144.683594 229.671875 145.011719 229.996094 C 145.34375 230.324219 145.636719 230.679688 145.894531 231.0625 C 146.15625 231.449219 146.375 231.851562 146.554688 232.28125 C 146.734375 232.707031 146.867188 233.148438 146.960938 233.601562 C 147.054688 234.054688 147.101562 234.515625 147.101562 234.980469 Z M 313.914062 199.855469 L 61.015625 199.855469 C 60.324219 199.855469 59.636719 199.921875 58.960938 200.054688 C 58.28125 200.191406 57.621094 200.390625 56.984375 200.65625 C 56.34375 200.921875 55.734375 201.246094 55.160156 201.628906 C 54.585938 202.015625 54.054688 202.449219 53.5625 202.941406 C 53.074219 203.429688 52.636719 203.960938 52.253906 204.535156 C 51.871094 205.113281 51.542969 205.71875 51.28125 206.359375 C 51.015625 207 50.816406 207.65625 50.679688 208.335938 C 50.546875 209.015625 50.476562 209.699219 50.476562 210.390625 L 50.476562 259.566406 C 50.476562 260.257812 50.546875 260.941406 50.679688 261.621094 C 50.816406 262.300781 51.015625 262.960938 51.28125 263.597656 C 51.542969 264.238281 51.871094 264.84375 52.253906 265.421875 C 52.636719 265.996094 53.074219 266.527344 53.5625 267.015625 C 54.054688 267.507812 54.585938 267.941406 55.160156 268.328125 C 55.734375 268.710938 56.34375 269.035156 56.984375 269.300781 C 57.621094 269.566406 58.28125 269.765625 58.960938 269.902344 C 59.636719 270.035156 60.324219 270.101562 61.015625 270.101562 L 313.976562 270.101562 C 314.667969 270.101562 315.355469 270.035156 316.03125 269.902344 C 316.710938 269.765625 317.371094 269.566406 318.007812 269.300781 C 318.648438 269.035156 319.257812 268.710938 319.832031 268.328125 C 320.40625 267.941406 320.9375 267.507812 321.429688 267.015625 C 321.917969 266.527344 322.355469 265.996094 322.738281 265.421875 C 323.121094 264.84375 323.449219 264.238281 323.710938 263.597656 C 323.976562 262.960938 324.175781 262.300781 324.3125 261.621094 C 324.445312 260.941406 324.515625 260.257812 324.515625 259.566406 L 324.515625 210.359375 C 324.515625 209.667969 324.445312 208.980469 324.3125 208.304688 C 324.175781 207.625 323.976562 206.964844 323.710938 206.328125 C 323.449219 205.6875 323.121094 205.082031 322.738281 204.503906 C 322.355469 203.929688 321.917969 203.398438 321.429688 202.910156 C 320.9375 202.417969 320.40625 201.980469 319.832031 201.597656 C 319.257812 201.214844 318.648438 200.890625 318.007812 200.625 C 317.371094 200.359375 316.710938 200.160156 316.03125 200.023438 C 315.355469 199.890625 314.667969 199.820312 313.976562 199.820312 Z M 317.425781 252.574219 C 317.425781 253.265625 317.359375 253.949219 317.222656 254.628906 C 317.089844 255.308594 316.886719 255.964844 316.625 256.605469 C 316.359375 257.246094 316.035156 257.851562 315.648438 258.425781 C 315.265625 259.003906 314.828125 259.535156 314.339844 260.023438 C 313.851562 260.511719 313.316406 260.949219 312.742188 261.335938 C 312.167969 261.71875 311.558594 262.042969 310.921875 262.308594 C 310.28125 262.574219 309.621094 262.773438 308.945312 262.90625 C 308.265625 263.042969 307.578125 263.109375 306.886719 263.109375 L 68.039062 263.109375 C 67.347656 263.109375 66.664062 263.042969 65.984375 262.90625 C 65.304688 262.773438 64.648438 262.574219 64.007812 262.308594 C 63.367188 262.042969 62.761719 261.71875 62.1875 261.335938 C 61.609375 260.949219 61.078125 260.511719 60.589844 260.023438 C 60.101562 259.535156 59.664062 259.003906 59.277344 258.425781 C 58.894531 257.851562 58.570312 257.246094 58.304688 256.605469 C 58.039062 255.964844 57.839844 255.308594 57.707031 254.628906 C 57.570312 253.949219 57.503906 253.265625 57.503906 252.574219 L 57.503906 217.449219 C 57.507812 216.757812 57.582031 216.078125 57.722656 215.402344 C 57.859375 214.730469 58.0625 214.074219 58.332031 213.441406 C 58.597656 212.804688 58.925781 212.203125 59.308594 211.632812 C 59.695312 211.0625 60.132812 210.53125 60.621094 210.046875 C 61.109375 209.5625 61.640625 209.128906 62.214844 208.746094 C 62.785156 208.363281 63.390625 208.042969 64.027344 207.777344 C 64.664062 207.515625 65.320312 207.316406 65.996094 207.179688 C 66.667969 207.046875 67.351562 206.976562 68.039062 206.976562 L 306.953125 206.976562 C 307.644531 206.976562 308.332031 207.046875 309.007812 207.183594 C 309.6875 207.320312 310.347656 207.523438 310.988281 207.789062 C 311.625 208.054688 312.234375 208.382812 312.808594 208.765625 C 313.382812 209.152344 313.914062 209.589844 314.40625 210.082031 C 314.894531 210.570312 315.332031 211.105469 315.714844 211.683594 C 316.097656 212.257812 316.421875 212.867188 316.6875 213.507812 C 316.953125 214.148438 317.152344 214.804688 317.289062 215.484375 C 317.421875 216.164062 317.488281 216.851562 317.488281 217.542969 Z M 248.582031 192.796875 L 280.097656 98.214844 C 280.214844 97.890625 280.363281 97.582031 280.535156 97.285156 C 280.710938 96.992188 280.914062 96.714844 281.140625 96.453125 C 281.367188 96.195312 281.613281 95.960938 281.882812 95.746094 C 282.15625 95.535156 282.441406 95.347656 282.746094 95.1875 C 283.050781 95.03125 283.371094 94.898438 283.699219 94.800781 C 284.027344 94.699219 284.363281 94.628906 284.703125 94.59375 C 285.046875 94.554688 285.390625 94.546875 285.734375 94.574219 C 286.074219 94.597656 286.414062 94.65625 286.746094 94.746094 C 287.078125 94.832031 287.398438 94.953125 287.710938 95.097656 C 288.019531 95.246094 288.316406 95.421875 288.59375 95.625 C 288.871094 95.828125 289.128906 96.054688 289.363281 96.304688 C 289.597656 96.554688 289.808594 96.824219 289.996094 97.113281 C 290.183594 97.40625 290.339844 97.707031 290.46875 98.027344 C 290.597656 98.347656 290.695312 98.675781 290.765625 99.011719 C 290.832031 99.347656 290.871094 99.6875 290.875 100.035156 C 290.878906 100.378906 290.851562 100.71875 290.792969 101.058594 L 272.433594 192.796875 Z M 85.730469 287.664062 C 85.265625 287.664062 84.816406 287.578125 84.386719 287.398438 C 83.957031 287.21875 83.574219 286.964844 83.246094 286.636719 C 82.917969 286.308594 82.664062 285.925781 82.484375 285.496094 C 82.308594 285.066406 82.21875 284.617188 82.21875 284.152344 L 82.21875 277.222656 L 131.296875 277.222656 L 131.296875 284.25 C 131.296875 284.714844 131.207031 285.164062 131.027344 285.59375 C 130.851562 286.023438 130.597656 286.402344 130.269531 286.734375 C 129.9375 287.0625 129.558594 287.316406 129.128906 287.492188 C 128.699219 287.671875 128.25 287.761719 127.785156 287.761719 Z M 84.324219 101.058594 C 84.265625 100.40625 84.324219 99.765625 84.492188 99.132812 C 84.660156 98.503906 84.929688 97.917969 85.304688 97.382812 C 85.679688 96.847656 86.132812 96.390625 86.667969 96.015625 C 87.203125 95.640625 87.785156 95.367188 88.417969 95.199219 C 89.046875 95.03125 89.6875 94.972656 90.339844 95.03125 C 90.992188 95.085938 91.613281 95.253906 92.203125 95.527344 C 92.796875 95.804688 93.324219 96.171875 93.785156 96.632812 C 94.25 97.097656 94.617188 97.625 94.894531 98.214844 L 126.410156 192.796875 L 102.558594 192.796875 Z M 247.207031 287.664062 C 246.742188 287.664062 246.292969 287.578125 245.863281 287.398438 C 245.433594 287.21875 245.054688 286.964844 244.722656 286.636719 C 244.394531 286.308594 244.140625 285.925781 243.964844 285.496094 C 243.785156 285.066406 243.695312 284.617188 243.695312 284.152344 L 243.695312 277.222656 L 292.871094 277.222656 L 292.871094 284.25 C 292.871094 284.714844 292.78125 285.164062 292.601562 285.59375 C 292.425781 286.023438 292.171875 286.402344 291.839844 286.734375 C 291.511719 287.0625 291.132812 287.316406 290.703125 287.492188 C 290.273438 287.671875 289.824219 287.761719 289.359375 287.761719 Z M 193.882812 175.042969 C 193.460938 175.46875 193.003906 175.851562 192.507812 176.1875 C 192.011719 176.523438 191.488281 176.808594 190.933594 177.042969 C 190.382812 177.277344 189.8125 177.453125 189.226562 177.570312 C 188.636719 177.691406 188.042969 177.753906 187.445312 177.757812 C 186.84375 177.761719 186.25 177.703125 185.664062 177.589844 C 185.074219 177.476562 184.503906 177.304688 183.949219 177.078125 C 183.394531 176.851562 182.867188 176.570312 182.367188 176.238281 C 181.867188 175.90625 181.40625 175.53125 180.980469 175.109375 C 180.554688 174.683594 180.175781 174.226562 179.839844 173.726562 C 179.507812 173.230469 179.226562 172.703125 178.996094 172.148438 C 178.765625 171.597656 178.59375 171.027344 178.472656 170.4375 C 178.355469 169.851562 178.296875 169.257812 178.296875 168.65625 C 178.296875 168.058594 178.355469 167.464844 178.472656 166.875 C 178.59375 166.289062 178.765625 165.71875 178.996094 165.164062 C 179.226562 164.609375 179.507812 164.085938 179.839844 163.585938 C 180.175781 163.089844 180.554688 162.628906 180.980469 162.207031 C 181.40625 161.78125 181.867188 161.40625 182.367188 161.074219 C 182.867188 160.742188 183.394531 160.464844 183.949219 160.234375 C 184.503906 160.007812 185.074219 159.835938 185.664062 159.722656 C 186.25 159.609375 186.84375 159.554688 187.445312 159.554688 C 188.042969 159.558594 188.636719 159.621094 189.226562 159.742188 C 189.8125 159.863281 190.382812 160.039062 190.933594 160.269531 C 191.488281 160.503906 192.011719 160.789062 192.507812 161.125 C 193.003906 161.460938 193.460938 161.84375 193.882812 162.269531 C 194.300781 162.691406 194.671875 163.148438 195 163.640625 C 195.328125 164.136719 195.605469 164.65625 195.828125 165.203125 C 196.054688 165.75 196.226562 166.316406 196.339844 166.898438 C 196.453125 167.476562 196.511719 168.066406 196.511719 168.65625 C 196.511719 169.25 196.453125 169.835938 196.339844 170.417969 C 196.226562 171 196.054688 171.5625 195.828125 172.109375 C 195.605469 172.65625 195.328125 173.179688 195 173.671875 C 194.671875 174.164062 194.300781 174.621094 193.882812 175.042969 Z M 213.042969 153.710938 C 212.121094 153.039062 211.175781 152.40625 210.207031 151.808594 C 209.238281 151.210938 208.246094 150.652344 207.230469 150.132812 C 206.21875 149.613281 205.183594 149.136719 204.132812 148.699219 C 203.082031 148.261719 202.015625 147.867188 200.933594 147.511719 C 199.847656 147.160156 198.753906 146.847656 197.648438 146.582031 C 196.539062 146.3125 195.421875 146.089844 194.296875 145.914062 C 193.171875 145.734375 192.042969 145.597656 190.90625 145.507812 C 189.773438 145.417969 188.636719 145.375 187.496094 145.375 C 186.355469 145.375 185.21875 145.417969 184.085938 145.507812 C 182.949219 145.597656 181.820312 145.734375 180.695312 145.914062 C 179.570312 146.089844 178.453125 146.3125 177.34375 146.582031 C 176.238281 146.847656 175.144531 147.160156 174.058594 147.511719 C 172.976562 147.867188 171.910156 148.261719 170.859375 148.699219 C 169.808594 149.136719 168.773438 149.613281 167.761719 150.132812 C 166.746094 150.652344 165.753906 151.210938 164.785156 151.808594 C 163.816406 152.40625 162.871094 153.039062 161.949219 153.710938 C 161.554688 153.976562 161.125 154.15625 160.660156 154.246094 C 160.191406 154.335938 159.726562 154.335938 159.261719 154.238281 C 158.796875 154.144531 158.367188 153.960938 157.976562 153.691406 C 157.585938 153.425781 157.257812 153.089844 157 152.691406 C 156.722656 152.316406 156.53125 151.902344 156.417969 151.449219 C 156.308594 150.996094 156.292969 150.539062 156.367188 150.078125 C 156.441406 149.621094 156.605469 149.191406 156.851562 148.796875 C 157.101562 148.402344 157.417969 148.070312 157.800781 147.804688 C 158.867188 147.023438 159.96875 146.285156 161.09375 145.589844 C 162.222656 144.898438 163.375 144.246094 164.554688 143.644531 C 165.730469 143.039062 166.933594 142.484375 168.15625 141.976562 C 169.378906 141.464844 170.617188 141.007812 171.875 140.59375 C 173.136719 140.183594 174.410156 139.824219 175.695312 139.511719 C 176.984375 139.203125 178.28125 138.941406 179.589844 138.734375 C 180.894531 138.527344 182.210938 138.371094 183.53125 138.265625 C 184.851562 138.160156 186.171875 138.109375 187.496094 138.109375 C 188.820312 138.109375 190.140625 138.160156 191.460938 138.265625 C 192.78125 138.371094 194.097656 138.527344 195.402344 138.734375 C 196.710938 138.941406 198.007812 139.203125 199.296875 139.511719 C 200.582031 139.824219 201.855469 140.183594 203.117188 140.59375 C 204.375 141.007812 205.613281 141.464844 206.835938 141.976562 C 208.058594 142.484375 209.261719 143.039062 210.4375 143.644531 C 211.617188 144.246094 212.769531 144.898438 213.898438 145.589844 C 215.023438 146.285156 216.125 147.023438 217.191406 147.804688 C 217.574219 148.070312 217.890625 148.402344 218.140625 148.796875 C 218.386719 149.191406 218.550781 149.621094 218.625 150.078125 C 218.699219 150.539062 218.683594 150.996094 218.574219 151.449219 C 218.460938 151.902344 218.269531 152.316406 217.992188 152.691406 C 217.664062 153.148438 217.246094 153.507812 216.746094 153.769531 C 216.246094 154.027344 215.714844 154.15625 215.148438 154.160156 C 214.386719 154.203125 213.6875 154.023438 213.042969 153.617188 Z M 227.21875 135.957031 C 225.785156 134.914062 224.316406 133.929688 222.804688 133 C 221.296875 132.070312 219.753906 131.203125 218.175781 130.398438 C 216.597656 129.589844 214.988281 128.847656 213.351562 128.167969 C 211.714844 127.488281 210.054688 126.871094 208.371094 126.324219 C 206.683594 125.773438 204.980469 125.292969 203.257812 124.878906 C 201.535156 124.460938 199.796875 124.117188 198.046875 123.839844 C 196.296875 123.558594 194.539062 123.351562 192.773438 123.210938 C 191.007812 123.074219 189.238281 123.003906 187.464844 123.003906 C 185.691406 123.003906 183.921875 123.074219 182.15625 123.210938 C 180.390625 123.351562 178.628906 123.558594 176.878906 123.839844 C 175.128906 124.117188 173.394531 124.460938 171.667969 124.878906 C 169.945312 125.292969 168.242188 125.773438 166.558594 126.324219 C 164.871094 126.871094 163.210938 127.488281 161.574219 128.167969 C 159.9375 128.847656 158.332031 129.589844 156.753906 130.398438 C 155.175781 131.203125 153.632812 132.070312 152.121094 133 C 150.613281 133.929688 149.140625 134.914062 147.710938 135.957031 C 147.335938 136.164062 146.9375 136.300781 146.515625 136.359375 C 146.09375 136.421875 145.671875 136.40625 145.253906 136.316406 C 144.839844 136.222656 144.449219 136.0625 144.09375 135.828125 C 143.734375 135.59375 143.429688 135.304688 143.175781 134.960938 C 142.925781 134.617188 142.742188 134.238281 142.625 133.828125 C 142.511719 133.417969 142.472656 132.996094 142.511719 132.570312 C 142.550781 132.148438 142.660156 131.742188 142.847656 131.355469 C 143.03125 130.972656 143.28125 130.632812 143.589844 130.339844 C 145.171875 129.1875 146.796875 128.097656 148.464844 127.074219 C 150.132812 126.050781 151.835938 125.089844 153.578125 124.203125 C 155.324219 123.3125 157.097656 122.492188 158.90625 121.738281 C 160.714844 120.988281 162.546875 120.3125 164.410156 119.707031 C 166.269531 119.097656 168.152344 118.566406 170.054688 118.109375 C 171.957031 117.652344 173.875 117.269531 175.808594 116.960938 C 177.742188 116.65625 179.683594 116.425781 181.632812 116.273438 C 183.585938 116.117188 185.539062 116.039062 187.496094 116.039062 C 189.453125 116.039062 191.40625 116.117188 193.359375 116.273438 C 195.308594 116.425781 197.25 116.65625 199.183594 116.960938 C 201.117188 117.269531 203.035156 117.652344 204.9375 118.109375 C 206.839844 118.566406 208.722656 119.097656 210.582031 119.707031 C 212.445312 120.3125 214.277344 120.988281 216.085938 121.738281 C 217.894531 122.492188 219.667969 123.3125 221.414062 124.203125 C 223.15625 125.089844 224.859375 126.050781 226.527344 127.074219 C 228.195312 128.097656 229.820312 129.1875 231.402344 130.339844 C 231.710938 130.554688 231.976562 130.8125 232.199219 131.113281 C 232.425781 131.417969 232.597656 131.746094 232.714844 132.101562 C 232.832031 132.457031 232.894531 132.824219 232.894531 133.199219 C 232.898438 133.574219 232.839844 133.941406 232.722656 134.300781 C 232.609375 134.65625 232.4375 134.988281 232.214844 135.289062 C 231.996094 135.59375 231.730469 135.851562 231.425781 136.070312 C 231.117188 136.289062 230.785156 136.453125 230.429688 136.566406 C 230.070312 136.679688 229.703125 136.730469 229.328125 136.726562 C 228.542969 136.664062 227.847656 136.375 227.25 135.863281 Z M 128.582031 117.4375 C 128.3125 117.058594 128.125 116.640625 128.019531 116.1875 C 127.914062 115.734375 127.898438 115.277344 127.972656 114.816406 C 128.046875 114.355469 128.207031 113.925781 128.449219 113.53125 C 128.695312 113.132812 129.003906 112.796875 129.378906 112.519531 C 131.472656 110.996094 133.621094 109.554688 135.828125 108.199219 C 138.035156 106.84375 140.289062 105.578125 142.59375 104.398438 C 144.902344 103.21875 147.25 102.132812 149.640625 101.140625 C 152.03125 100.148438 154.457031 99.25 156.921875 98.449219 C 159.382812 97.644531 161.871094 96.941406 164.390625 96.335938 C 166.90625 95.730469 169.445312 95.222656 172 94.816406 C 174.558594 94.414062 177.128906 94.109375 179.707031 93.902344 C 182.289062 93.699219 184.875 93.597656 187.464844 93.597656 C 190.054688 93.597656 192.636719 93.699219 195.21875 93.902344 C 197.800781 94.109375 200.371094 94.414062 202.925781 94.816406 C 205.484375 95.222656 208.023438 95.730469 210.539062 96.335938 C 213.058594 96.941406 215.546875 97.644531 218.007812 98.449219 C 220.46875 99.25 222.898438 100.148438 225.289062 101.140625 C 227.679688 102.132812 230.027344 103.21875 232.332031 104.398438 C 234.640625 105.578125 236.894531 106.84375 239.101562 108.199219 C 241.304688 109.554688 243.457031 110.996094 245.546875 112.519531 C 245.925781 112.796875 246.234375 113.132812 246.476562 113.53125 C 246.722656 113.925781 246.882812 114.355469 246.957031 114.816406 C 247.03125 115.277344 247.015625 115.734375 246.910156 116.1875 C 246.804688 116.640625 246.617188 117.058594 246.347656 117.4375 C 246.019531 117.898438 245.601562 118.257812 245.101562 118.515625 C 244.601562 118.773438 244.066406 118.90625 243.503906 118.90625 C 242.742188 118.90625 242.046875 118.683594 241.429688 118.238281 C 239.484375 116.816406 237.488281 115.476562 235.441406 114.214844 C 233.390625 112.957031 231.296875 111.777344 229.152344 110.679688 C 227.011719 109.585938 224.832031 108.574219 222.609375 107.652344 C 220.386719 106.726562 218.132812 105.890625 215.84375 105.144531 C 213.558594 104.398438 211.246094 103.746094 208.90625 103.179688 C 206.566406 102.617188 204.210938 102.144531 201.832031 101.769531 C 199.457031 101.390625 197.070312 101.105469 194.671875 100.917969 C 192.273438 100.726562 189.871094 100.632812 187.464844 100.632812 C 185.058594 100.632812 182.65625 100.726562 180.257812 100.917969 C 177.859375 101.105469 175.472656 101.390625 173.09375 101.769531 C 170.71875 102.144531 168.363281 102.617188 166.023438 103.179688 C 163.683594 103.746094 161.371094 104.398438 159.082031 105.144531 C 156.796875 105.890625 154.539062 106.726562 152.320312 107.652344 C 150.097656 108.574219 147.917969 109.585938 145.773438 110.679688 C 143.632812 111.777344 141.535156 112.957031 139.488281 114.214844 C 137.4375 115.476562 135.441406 116.816406 133.5 118.238281 C 133.117188 118.496094 132.695312 118.675781 132.242188 118.769531 C 131.785156 118.867188 131.332031 118.871094 130.875 118.789062 C 130.417969 118.707031 129.992188 118.539062 129.601562 118.289062 C 129.210938 118.039062 128.882812 117.722656 128.613281 117.34375 Z M 128.582031 117.4375 " fill-opacity="1" fill-rule="nonzero"/></g></svg>