<svg xmlns="http://www.w3.org/2000/svg" xmlns:xlink="http://www.w3.org/1999/xlink" width="500" zoomAndPan="magnify" viewBox="0 0 375 374.999991" height="500" preserveAspectRatio="xMidYMid meet" version="1.0"><defs><clipPath id="605767c644"><path d="M 64.824219 99.839844 L 310.074219 99.839844 L 310.074219 275.339844 L 64.824219 275.339844 Z M 64.824219 99.839844 " clip-rule="nonzero"/></clipPath></defs><g clip-path="url(#605767c644)"><path fill="#ffffff" d="M 280.960938 99.875 L 94.03125 99.875 C 93.074219 99.875 92.121094 99.921875 91.167969 100.019531 C 90.21875 100.113281 89.273438 100.253906 88.335938 100.441406 C 87.394531 100.628906 86.46875 100.859375 85.554688 101.140625 C 84.640625 101.417969 83.742188 101.738281 82.859375 102.105469 C 81.972656 102.472656 81.109375 102.878906 80.265625 103.332031 C 79.425781 103.78125 78.605469 104.273438 77.808594 104.804688 C 77.015625 105.335938 76.246094 105.90625 75.507812 106.511719 C 74.769531 107.121094 74.0625 107.761719 73.386719 108.4375 C 72.710938 109.113281 72.066406 109.820312 71.460938 110.5625 C 70.855469 111.300781 70.285156 112.066406 69.753906 112.863281 C 69.222656 113.65625 68.730469 114.476562 68.28125 115.320312 C 67.828125 116.164062 67.417969 117.027344 67.054688 117.910156 C 66.6875 118.792969 66.363281 119.691406 66.085938 120.605469 C 65.808594 121.523438 65.574219 122.449219 65.386719 123.386719 C 65.203125 124.324219 65.0625 125.269531 64.964844 126.222656 C 64.871094 127.171875 64.824219 128.125 64.824219 129.082031 L 64.824219 245.914062 C 64.824219 246.871094 64.871094 247.824219 64.964844 248.773438 C 65.0625 249.726562 65.203125 250.671875 65.386719 251.609375 C 65.574219 252.546875 65.808594 253.472656 66.085938 254.386719 C 66.363281 255.304688 66.6875 256.203125 67.054688 257.085938 C 67.417969 257.96875 67.828125 258.832031 68.28125 259.675781 C 68.730469 260.519531 69.222656 261.339844 69.753906 262.132812 C 70.285156 262.929688 70.855469 263.695312 71.460938 264.433594 C 72.066406 265.175781 72.710938 265.882812 73.386719 266.558594 C 74.0625 267.234375 74.769531 267.875 75.507812 268.484375 C 76.246094 269.089844 77.015625 269.660156 77.808594 270.191406 C 78.605469 270.722656 79.425781 271.210938 80.265625 271.664062 C 81.109375 272.113281 81.972656 272.523438 82.859375 272.890625 C 83.742188 273.257812 84.640625 273.578125 85.554688 273.855469 C 86.46875 274.136719 87.394531 274.367188 88.335938 274.554688 C 89.273438 274.742188 90.21875 274.882812 91.167969 274.976562 C 92.121094 275.070312 93.074219 275.121094 94.03125 275.121094 L 280.960938 275.121094 C 281.914062 275.121094 282.871094 275.070312 283.820312 274.976562 C 284.773438 274.882812 285.71875 274.742188 286.65625 274.554688 C 287.59375 274.367188 288.519531 274.136719 289.433594 273.855469 C 290.351562 273.578125 291.25 273.257812 292.132812 272.890625 C 293.015625 272.523438 293.878906 272.113281 294.722656 271.664062 C 295.566406 271.210938 296.382812 270.722656 297.179688 270.191406 C 297.976562 269.660156 298.742188 269.089844 299.480469 268.484375 C 300.21875 267.875 300.929688 267.234375 301.605469 266.558594 C 302.28125 265.882812 302.921875 265.175781 303.527344 264.433594 C 304.136719 263.695312 304.703125 262.929688 305.234375 262.132812 C 305.765625 261.339844 306.257812 260.519531 306.710938 259.675781 C 307.160156 258.832031 307.570312 257.96875 307.9375 257.085938 C 308.300781 256.203125 308.625 255.304688 308.902344 254.386719 C 309.179688 253.472656 309.414062 252.546875 309.601562 251.609375 C 309.789062 250.671875 309.929688 249.726562 310.023438 248.773438 C 310.117188 247.824219 310.164062 246.871094 310.167969 245.914062 L 310.167969 129.082031 C 310.164062 128.125 310.117188 127.171875 310.023438 126.222656 C 309.929688 125.269531 309.789062 124.324219 309.601562 123.386719 C 309.414062 122.449219 309.179688 121.523438 308.902344 120.605469 C 308.625 119.691406 308.300781 118.792969 307.9375 117.910156 C 307.570312 117.027344 307.160156 116.164062 306.710938 115.320312 C 306.257812 114.476562 305.765625 113.65625 305.234375 112.863281 C 304.703125 112.066406 304.136719 111.300781 303.527344 110.5625 C 302.921875 109.820312 302.28125 109.113281 301.605469 108.4375 C 300.929688 107.761719 300.21875 107.121094 299.480469 106.511719 C 298.742188 105.90625 297.976562 105.335938 297.179688 104.804688 C 296.382812 104.273438 295.566406 103.78125 294.722656 103.332031 C 293.878906 102.878906 293.015625 102.472656 292.132812 102.105469 C 291.25 101.738281 290.351562 101.417969 289.433594 101.140625 C 288.519531 100.859375 287.59375 100.628906 286.65625 100.441406 C 285.71875 100.253906 284.773438 100.113281 283.820312 100.019531 C 282.871094 99.921875 281.914062 99.875 280.960938 99.875 Z M 298.484375 245.914062 C 298.484375 246.488281 298.453125 247.058594 298.398438 247.628906 C 298.339844 248.203125 298.257812 248.769531 298.144531 249.332031 C 298.03125 249.894531 297.890625 250.449219 297.726562 251 C 297.558594 251.546875 297.363281 252.085938 297.144531 252.617188 C 296.925781 253.144531 296.679688 253.664062 296.410156 254.171875 C 296.136719 254.675781 295.84375 255.167969 295.523438 255.644531 C 295.207031 256.121094 294.863281 256.582031 294.5 257.027344 C 294.136719 257.46875 293.75 257.894531 293.34375 258.300781 C 292.941406 258.703125 292.515625 259.089844 292.070312 259.453125 C 291.628906 259.816406 291.167969 260.160156 290.691406 260.476562 C 290.214844 260.796875 289.722656 261.09375 289.214844 261.363281 C 288.710938 261.632812 288.191406 261.878906 287.664062 262.097656 C 287.132812 262.320312 286.59375 262.511719 286.042969 262.679688 C 285.496094 262.84375 284.9375 262.984375 284.375 263.097656 C 283.8125 263.210938 283.246094 263.292969 282.675781 263.351562 C 282.105469 263.410156 281.53125 263.4375 280.960938 263.4375 L 94.03125 263.4375 C 93.457031 263.4375 92.882812 263.410156 92.3125 263.351562 C 91.742188 263.292969 91.175781 263.210938 90.613281 263.097656 C 90.050781 262.984375 89.496094 262.84375 88.945312 262.679688 C 88.398438 262.511719 87.855469 262.320312 87.328125 262.097656 C 86.796875 261.878906 86.277344 261.632812 85.773438 261.363281 C 85.265625 261.09375 84.777344 260.796875 84.300781 260.476562 C 83.820312 260.160156 83.363281 259.816406 82.917969 259.453125 C 82.476562 259.089844 82.050781 258.703125 81.644531 258.300781 C 81.238281 257.894531 80.855469 257.46875 80.488281 257.027344 C 80.125 256.582031 79.785156 256.121094 79.464844 255.644531 C 79.144531 255.167969 78.851562 254.675781 78.582031 254.171875 C 78.308594 253.664062 78.066406 253.148438 77.84375 252.617188 C 77.625 252.085938 77.433594 251.546875 77.265625 251 C 77.097656 250.449219 76.957031 249.894531 76.847656 249.332031 C 76.734375 248.769531 76.648438 248.203125 76.59375 247.628906 C 76.535156 247.058594 76.507812 246.488281 76.507812 245.914062 L 76.507812 129.082031 C 76.507812 128.507812 76.535156 127.9375 76.59375 127.367188 C 76.648438 126.792969 76.734375 126.226562 76.847656 125.664062 C 76.957031 125.101562 77.097656 124.546875 77.265625 123.996094 C 77.433594 123.449219 77.625 122.910156 77.84375 122.378906 C 78.066406 121.847656 78.308594 121.332031 78.582031 120.824219 C 78.851562 120.320312 79.144531 119.828125 79.464844 119.351562 C 79.785156 118.875 80.125 118.414062 80.488281 117.96875 C 80.855469 117.527344 81.238281 117.101562 81.644531 116.695312 C 82.050781 116.289062 82.476562 115.90625 82.917969 115.542969 C 83.363281 115.179688 83.820312 114.835938 84.300781 114.515625 C 84.777344 114.199219 85.265625 113.902344 85.773438 113.632812 C 86.277344 113.363281 86.796875 113.117188 87.328125 112.898438 C 87.855469 112.675781 88.398438 112.484375 88.945312 112.316406 C 89.496094 112.148438 90.050781 112.011719 90.613281 111.898438 C 91.175781 111.785156 91.742188 111.699219 92.3125 111.644531 C 92.882812 111.585938 93.457031 111.558594 94.03125 111.558594 L 280.960938 111.558594 C 281.53125 111.558594 282.105469 111.585938 282.675781 111.644531 C 283.246094 111.699219 283.8125 111.785156 284.375 111.898438 C 284.9375 112.011719 285.496094 112.148438 286.042969 112.316406 C 286.59375 112.484375 287.132812 112.675781 287.664062 112.898438 C 288.191406 113.117188 288.710938 113.363281 289.214844 113.632812 C 289.722656 113.902344 290.214844 114.199219 290.691406 114.515625 C 291.167969 114.835938 291.628906 115.179688 292.070312 115.542969 C 292.515625 115.90625 292.941406 116.289062 293.34375 116.695312 C 293.75 117.101562 294.136719 117.527344 294.5 117.96875 C 294.863281 118.414062 295.207031 118.875 295.523438 119.351562 C 295.84375 119.828125 296.136719 120.320312 296.410156 120.824219 C 296.679688 121.332031 296.925781 121.847656 297.144531 122.378906 C 297.363281 122.910156 297.558594 123.449219 297.726562 123.996094 C 297.890625 124.546875 298.03125 125.101562 298.144531 125.664062 C 298.257812 126.226562 298.339844 126.792969 298.398438 127.367188 C 298.453125 127.9375 298.484375 128.507812 298.484375 129.082031 Z M 140.761719 193.339844 C 141.71875 193.339844 142.671875 193.292969 143.625 193.199219 C 144.578125 193.105469 145.523438 192.964844 146.460938 192.777344 C 147.398438 192.589844 148.324219 192.359375 149.242188 192.082031 C 150.15625 191.804688 151.054688 191.480469 151.941406 191.117188 C 152.824219 190.75 153.6875 190.339844 154.53125 189.890625 C 155.375 189.441406 156.195312 188.949219 156.988281 188.417969 C 157.785156 187.886719 158.550781 187.316406 159.292969 186.710938 C 160.03125 186.101562 160.738281 185.460938 161.414062 184.785156 C 162.09375 184.109375 162.734375 183.402344 163.339844 182.660156 C 163.949219 181.921875 164.515625 181.152344 165.046875 180.359375 C 165.578125 179.5625 166.070312 178.742188 166.519531 177.898438 C 166.972656 177.054688 167.382812 176.191406 167.746094 175.308594 C 168.113281 174.425781 168.433594 173.527344 168.710938 172.609375 C 168.992188 171.695312 169.222656 170.769531 169.410156 169.828125 C 169.59375 168.890625 169.734375 167.945312 169.828125 166.996094 C 169.921875 166.042969 169.96875 165.089844 169.96875 164.132812 C 169.96875 163.175781 169.921875 162.222656 169.828125 161.269531 C 169.734375 160.316406 169.59375 159.371094 169.410156 158.433594 C 169.222656 157.496094 168.992188 156.570312 168.710938 155.652344 C 168.433594 154.738281 168.113281 153.839844 167.746094 152.953125 C 167.382812 152.070312 166.972656 151.207031 166.523438 150.363281 C 166.070312 149.519531 165.578125 148.699219 165.046875 147.90625 C 164.515625 147.109375 163.949219 146.34375 163.339844 145.601562 C 162.734375 144.863281 162.09375 144.15625 161.414062 143.480469 C 160.738281 142.800781 160.03125 142.160156 159.292969 141.554688 C 158.550781 140.945312 157.785156 140.378906 156.988281 139.847656 C 156.195312 139.316406 155.375 138.824219 154.53125 138.375 C 153.6875 137.921875 152.824219 137.511719 151.941406 137.148438 C 151.054688 136.78125 150.15625 136.460938 149.242188 136.183594 C 148.324219 135.902344 147.398438 135.671875 146.460938 135.484375 C 145.523438 135.300781 144.578125 135.160156 143.625 135.066406 C 142.671875 134.972656 141.71875 134.925781 140.761719 134.925781 C 139.804688 134.925781 138.851562 134.972656 137.898438 135.066406 C 136.949219 135.160156 136.003906 135.300781 135.066406 135.484375 C 134.125 135.671875 133.199219 135.902344 132.285156 136.183594 C 131.367188 136.460938 130.46875 136.78125 129.585938 137.148438 C 128.703125 137.511719 127.839844 137.921875 126.996094 138.375 C 126.152344 138.824219 125.332031 139.316406 124.535156 139.847656 C 123.742188 140.378906 122.972656 140.945312 122.234375 141.554688 C 121.496094 142.160156 120.785156 142.800781 120.109375 143.480469 C 119.433594 144.15625 118.792969 144.863281 118.183594 145.601562 C 117.578125 146.34375 117.007812 147.109375 116.476562 147.90625 C 115.945312 148.699219 115.453125 149.519531 115.003906 150.363281 C 114.554688 151.207031 114.144531 152.070312 113.777344 152.953125 C 113.414062 153.839844 113.089844 154.738281 112.8125 155.652344 C 112.535156 156.570312 112.304688 157.496094 112.117188 158.433594 C 111.929688 159.371094 111.789062 160.316406 111.695312 161.269531 C 111.601562 162.222656 111.554688 163.175781 111.554688 164.132812 C 111.554688 165.089844 111.605469 166.042969 111.699219 166.992188 C 111.792969 167.945312 111.933594 168.890625 112.121094 169.828125 C 112.308594 170.765625 112.539062 171.691406 112.820312 172.605469 C 113.097656 173.523438 113.417969 174.421875 113.785156 175.304688 C 114.152344 176.1875 114.5625 177.050781 115.011719 177.894531 C 115.464844 178.738281 115.953125 179.558594 116.484375 180.351562 C 117.015625 181.148438 117.585938 181.914062 118.191406 182.652344 C 118.800781 183.394531 119.441406 184.101562 120.117188 184.777344 C 120.792969 185.453125 121.5 186.09375 122.242188 186.703125 C 122.980469 187.308594 123.746094 187.878906 124.542969 188.410156 C 125.335938 188.941406 126.15625 189.429688 127 189.882812 C 127.84375 190.332031 128.707031 190.742188 129.589844 191.109375 C 130.472656 191.476562 131.371094 191.796875 132.289062 192.074219 C 133.203125 192.355469 134.128906 192.585938 135.066406 192.773438 C 136.003906 192.960938 136.949219 193.101562 137.902344 193.195312 C 138.851562 193.289062 139.804688 193.339844 140.761719 193.339844 Z M 140.761719 146.605469 C 141.335938 146.605469 141.910156 146.636719 142.480469 146.691406 C 143.050781 146.746094 143.617188 146.832031 144.179688 146.945312 C 144.746094 147.054688 145.300781 147.195312 145.851562 147.363281 C 146.398438 147.527344 146.9375 147.722656 147.46875 147.941406 C 148 148.160156 148.515625 148.40625 149.023438 148.675781 C 149.53125 148.945312 150.023438 149.242188 150.5 149.5625 C 150.976562 149.878906 151.4375 150.222656 151.878906 150.585938 C 152.324219 150.949219 152.75 151.335938 153.15625 151.738281 C 153.558594 152.144531 153.945312 152.570312 154.308594 153.015625 C 154.671875 153.457031 155.015625 153.917969 155.332031 154.394531 C 155.652344 154.871094 155.949219 155.363281 156.21875 155.871094 C 156.488281 156.378906 156.734375 156.894531 156.953125 157.425781 C 157.171875 157.957031 157.367188 158.496094 157.53125 159.042969 C 157.699219 159.59375 157.839844 160.148438 157.949219 160.714844 C 158.0625 161.277344 158.148438 161.84375 158.203125 162.414062 C 158.257812 162.984375 158.289062 163.558594 158.289062 164.132812 C 158.289062 164.707031 158.257812 165.277344 158.203125 165.847656 C 158.148438 166.421875 158.0625 166.988281 157.949219 167.550781 C 157.839844 168.113281 157.699219 168.667969 157.53125 169.21875 C 157.367188 169.769531 157.171875 170.308594 156.953125 170.839844 C 156.734375 171.367188 156.488281 171.886719 156.21875 172.394531 C 155.949219 172.898438 155.652344 173.390625 155.332031 173.867188 C 155.015625 174.34375 154.671875 174.804688 154.308594 175.25 C 153.945312 175.691406 153.558594 176.117188 153.15625 176.523438 C 152.75 176.929688 152.324219 177.3125 151.878906 177.679688 C 151.4375 178.042969 150.976562 178.382812 150.5 178.703125 C 150.023438 179.023438 149.53125 179.316406 149.023438 179.585938 C 148.515625 179.859375 148 180.101562 147.46875 180.324219 C 146.9375 180.542969 146.398438 180.734375 145.851562 180.902344 C 145.300781 181.070312 144.746094 181.207031 144.179688 181.320312 C 143.617188 181.433594 143.050781 181.515625 142.480469 181.570312 C 141.910156 181.628906 141.335938 181.65625 140.761719 181.65625 C 140.1875 181.65625 139.617188 181.628906 139.046875 181.570312 C 138.472656 181.515625 137.90625 181.433594 137.34375 181.320312 C 136.78125 181.207031 136.226562 181.070312 135.675781 180.902344 C 135.125 180.734375 134.585938 180.542969 134.054688 180.324219 C 133.527344 180.101562 133.007812 179.859375 132.5 179.585938 C 131.996094 179.316406 131.503906 179.023438 131.027344 178.703125 C 130.550781 178.382812 130.089844 178.042969 129.644531 177.679688 C 129.203125 177.3125 128.777344 176.929688 128.371094 176.523438 C 127.964844 176.117188 127.582031 175.691406 127.214844 175.25 C 126.851562 174.804688 126.511719 174.34375 126.191406 173.867188 C 125.871094 173.390625 125.578125 172.898438 125.308594 172.394531 C 125.035156 171.886719 124.792969 171.367188 124.570312 170.839844 C 124.351562 170.308594 124.160156 169.769531 123.992188 169.21875 C 123.824219 168.667969 123.6875 168.113281 123.574219 167.550781 C 123.464844 166.988281 123.378906 166.421875 123.324219 165.847656 C 123.265625 165.277344 123.238281 164.707031 123.238281 164.132812 C 123.238281 163.558594 123.265625 162.984375 123.324219 162.414062 C 123.382812 161.84375 123.464844 161.277344 123.578125 160.714844 C 123.691406 160.152344 123.832031 159.597656 123.996094 159.046875 C 124.164062 158.496094 124.355469 157.957031 124.578125 157.429688 C 124.796875 156.898438 125.042969 156.378906 125.3125 155.875 C 125.582031 155.367188 125.878906 154.878906 126.199219 154.398438 C 126.515625 153.921875 126.859375 153.464844 127.222656 153.019531 C 127.585938 152.574219 127.972656 152.152344 128.375 151.746094 C 128.78125 151.339844 129.207031 150.957031 129.648438 150.589844 C 130.09375 150.226562 130.554688 149.886719 131.03125 149.566406 C 131.507812 149.246094 132 148.953125 132.503906 148.683594 C 133.011719 148.410156 133.53125 148.167969 134.058594 147.945312 C 134.589844 147.726562 135.128906 147.53125 135.675781 147.367188 C 136.226562 147.199219 136.78125 147.058594 137.34375 146.945312 C 137.90625 146.835938 138.476562 146.75 139.046875 146.695312 C 139.617188 146.636719 140.1875 146.609375 140.761719 146.605469 Z M 181.652344 234.230469 C 181.652344 234.613281 181.617188 234.992188 181.542969 235.371094 C 181.464844 235.746094 181.355469 236.109375 181.207031 236.464844 C 181.0625 236.820312 180.882812 237.15625 180.667969 237.476562 C 180.457031 237.792969 180.214844 238.089844 179.941406 238.359375 C 179.671875 238.632812 179.375 238.875 179.058594 239.085938 C 178.738281 239.300781 178.402344 239.480469 178.046875 239.625 C 177.691406 239.773438 177.328125 239.882812 176.953125 239.960938 C 176.574219 240.035156 176.195312 240.070312 175.8125 240.070312 C 175.429688 240.070312 175.046875 240.035156 174.671875 239.960938 C 174.296875 239.882812 173.929688 239.773438 173.578125 239.625 C 173.222656 239.480469 172.886719 239.300781 172.566406 239.085938 C 172.246094 238.875 171.953125 238.632812 171.679688 238.359375 C 171.410156 238.089844 171.167969 237.792969 170.953125 237.476562 C 170.742188 237.15625 170.5625 236.820312 170.414062 236.464844 C 170.269531 236.109375 170.15625 235.746094 170.082031 235.371094 C 170.007812 234.992188 169.96875 234.613281 169.96875 234.230469 C 169.96875 233.65625 169.941406 233.082031 169.882812 232.511719 C 169.828125 231.941406 169.742188 231.375 169.628906 230.8125 C 169.519531 230.25 169.378906 229.695312 169.210938 229.144531 C 169.042969 228.597656 168.851562 228.058594 168.632812 227.527344 C 168.410156 226.996094 168.167969 226.480469 167.894531 225.972656 C 167.625 225.46875 167.328125 224.976562 167.011719 224.5 C 166.691406 224.023438 166.351562 223.5625 165.988281 223.117188 C 165.621094 222.675781 165.238281 222.25 164.832031 221.84375 C 164.425781 221.4375 164 221.054688 163.558594 220.6875 C 163.113281 220.324219 162.65625 219.984375 162.175781 219.664062 C 161.699219 219.347656 161.207031 219.050781 160.703125 218.78125 C 160.195312 218.507812 159.679688 218.265625 159.148438 218.042969 C 158.617188 217.824219 158.078125 217.632812 157.53125 217.464844 C 156.980469 217.296875 156.425781 217.15625 155.863281 217.046875 C 155.300781 216.933594 154.734375 216.847656 154.164062 216.792969 C 153.59375 216.734375 153.019531 216.707031 152.445312 216.707031 L 129.078125 216.707031 C 128.507812 216.707031 127.933594 216.734375 127.363281 216.792969 C 126.792969 216.847656 126.226562 216.933594 125.664062 217.046875 C 125.097656 217.15625 124.542969 217.296875 123.996094 217.464844 C 123.445312 217.632812 122.90625 217.824219 122.375 218.042969 C 121.847656 218.265625 121.328125 218.507812 120.824219 218.78125 C 120.316406 219.050781 119.824219 219.347656 119.347656 219.664062 C 118.871094 219.984375 118.410156 220.324219 117.96875 220.6875 C 117.523438 221.054688 117.097656 221.4375 116.695312 221.84375 C 116.289062 222.25 115.902344 222.675781 115.539062 223.117188 C 115.175781 223.5625 114.832031 224.023438 114.515625 224.5 C 114.195312 224.976562 113.902344 225.46875 113.628906 225.972656 C 113.359375 226.480469 113.113281 226.996094 112.894531 227.527344 C 112.675781 228.058594 112.480469 228.597656 112.3125 229.144531 C 112.148438 229.695312 112.007812 230.25 111.894531 230.8125 C 111.78125 231.375 111.699219 231.941406 111.640625 232.511719 C 111.585938 233.082031 111.554688 233.65625 111.554688 234.230469 C 111.554688 234.613281 111.519531 234.992188 111.441406 235.371094 C 111.367188 235.746094 111.257812 236.109375 111.109375 236.464844 C 110.964844 236.820312 110.785156 237.15625 110.570312 237.476562 C 110.359375 237.792969 110.117188 238.089844 109.84375 238.359375 C 109.574219 238.632812 109.277344 238.875 108.957031 239.085938 C 108.640625 239.300781 108.304688 239.480469 107.949219 239.625 C 107.59375 239.773438 107.230469 239.882812 106.851562 239.960938 C 106.476562 240.035156 106.097656 240.070312 105.714844 240.070312 C 105.328125 240.070312 104.949219 240.035156 104.574219 239.960938 C 104.199219 239.882812 103.832031 239.773438 103.476562 239.625 C 103.125 239.480469 102.789062 239.300781 102.46875 239.085938 C 102.148438 238.875 101.855469 238.632812 101.582031 238.359375 C 101.3125 238.089844 101.070312 237.792969 100.855469 237.476562 C 100.644531 237.15625 100.464844 236.820312 100.316406 236.464844 C 100.171875 236.109375 100.058594 235.746094 99.984375 235.371094 C 99.910156 234.992188 99.871094 234.613281 99.871094 234.230469 C 99.871094 233.273438 99.921875 232.320312 100.015625 231.367188 C 100.109375 230.417969 100.25 229.472656 100.4375 228.535156 C 100.625 227.597656 100.859375 226.667969 101.136719 225.753906 C 101.414062 224.839844 101.734375 223.941406 102.101562 223.058594 C 102.46875 222.171875 102.878906 221.308594 103.328125 220.46875 C 103.78125 219.625 104.269531 218.804688 104.800781 218.007812 C 105.335938 217.214844 105.902344 216.449219 106.511719 215.707031 C 107.117188 214.96875 107.757812 214.261719 108.433594 213.585938 C 109.109375 212.910156 109.820312 212.265625 110.558594 211.660156 C 111.296875 211.054688 112.0625 210.484375 112.859375 209.953125 C 113.652344 209.421875 114.472656 208.929688 115.316406 208.480469 C 116.160156 208.027344 117.023438 207.621094 117.90625 207.253906 C 118.789062 206.886719 119.6875 206.5625 120.605469 206.285156 C 121.519531 206.007812 122.445312 205.777344 123.382812 205.589844 C 124.320312 205.402344 125.265625 205.261719 126.21875 205.164062 C 127.167969 205.070312 128.125 205.023438 129.078125 205.023438 L 152.445312 205.023438 C 153.402344 205.023438 154.355469 205.070312 155.308594 205.164062 C 156.257812 205.261719 157.203125 205.402344 158.140625 205.589844 C 159.078125 205.777344 160.007812 206.007812 160.921875 206.285156 C 161.835938 206.5625 162.734375 206.886719 163.617188 207.253906 C 164.503906 207.621094 165.367188 208.027344 166.207031 208.480469 C 167.050781 208.929688 167.871094 209.421875 168.667969 209.953125 C 169.460938 210.484375 170.226562 211.054688 170.96875 211.660156 C 171.707031 212.265625 172.414062 212.910156 173.089844 213.585938 C 173.765625 214.261719 174.410156 214.96875 175.015625 215.707031 C 175.621094 216.449219 176.191406 217.214844 176.722656 218.007812 C 177.253906 218.804688 177.746094 219.625 178.195312 220.46875 C 178.648438 221.308594 179.054688 222.171875 179.421875 223.058594 C 179.789062 223.941406 180.113281 224.839844 180.390625 225.753906 C 180.667969 226.667969 180.902344 227.597656 181.085938 228.535156 C 181.273438 229.472656 181.414062 230.417969 181.511719 231.367188 C 181.605469 232.320312 181.652344 233.273438 181.652344 234.230469 Z M 275.117188 169.972656 C 275.117188 170.355469 275.082031 170.738281 275.007812 171.113281 C 274.929688 171.488281 274.820312 171.855469 274.675781 172.210938 C 274.527344 172.5625 274.347656 172.902344 274.132812 173.21875 C 273.921875 173.539062 273.679688 173.832031 273.40625 174.105469 C 273.136719 174.375 272.839844 174.617188 272.523438 174.832031 C 272.203125 175.042969 271.867188 175.222656 271.511719 175.371094 C 271.15625 175.519531 270.792969 175.628906 270.414062 175.703125 C 270.039062 175.777344 269.660156 175.816406 269.277344 175.816406 L 222.542969 175.816406 C 222.160156 175.816406 221.78125 175.777344 221.40625 175.703125 C 221.027344 175.628906 220.664062 175.515625 220.308594 175.371094 C 219.953125 175.222656 219.617188 175.042969 219.296875 174.832031 C 218.980469 174.617188 218.683594 174.375 218.414062 174.105469 C 218.140625 173.832031 217.898438 173.539062 217.6875 173.21875 C 217.472656 172.898438 217.292969 172.5625 217.148438 172.207031 C 217 171.855469 216.890625 171.488281 216.816406 171.113281 C 216.738281 170.738281 216.703125 170.355469 216.703125 169.972656 C 216.703125 169.589844 216.738281 169.210938 216.816406 168.832031 C 216.890625 168.457031 217 168.09375 217.148438 167.738281 C 217.292969 167.382812 217.472656 167.046875 217.6875 166.726562 C 217.898438 166.410156 218.140625 166.113281 218.414062 165.84375 C 218.683594 165.570312 218.980469 165.328125 219.296875 165.117188 C 219.617188 164.902344 219.953125 164.722656 220.308594 164.578125 C 220.664062 164.429688 221.027344 164.320312 221.40625 164.242188 C 221.78125 164.167969 222.160156 164.132812 222.542969 164.132812 L 269.277344 164.132812 C 269.660156 164.132812 270.039062 164.167969 270.414062 164.242188 C 270.792969 164.316406 271.15625 164.429688 271.511719 164.574219 C 271.867188 164.722656 272.203125 164.902344 272.523438 165.117188 C 272.839844 165.328125 273.136719 165.570312 273.40625 165.84375 C 273.679688 166.113281 273.921875 166.410156 274.132812 166.726562 C 274.347656 167.046875 274.527344 167.382812 274.675781 167.738281 C 274.820312 168.09375 274.929688 168.457031 275.007812 168.832031 C 275.082031 169.210938 275.117188 169.589844 275.117188 169.972656 Z M 251.75 205.023438 C 251.75 205.40625 251.714844 205.785156 251.640625 206.164062 C 251.566406 206.539062 251.453125 206.902344 251.308594 207.257812 C 251.160156 207.613281 250.980469 207.949219 250.769531 208.269531 C 250.554688 208.585938 250.3125 208.882812 250.042969 209.152344 C 249.769531 209.425781 249.476562 209.667969 249.15625 209.878906 C 248.835938 210.09375 248.5 210.273438 248.144531 210.421875 C 247.792969 210.566406 247.425781 210.675781 247.050781 210.753906 C 246.671875 210.828125 246.292969 210.863281 245.910156 210.863281 L 222.542969 210.863281 C 222.160156 210.863281 221.78125 210.828125 221.40625 210.75 C 221.027344 210.675781 220.664062 210.566406 220.308594 210.417969 C 219.953125 210.273438 219.617188 210.09375 219.296875 209.878906 C 218.980469 209.667969 218.683594 209.425781 218.414062 209.152344 C 218.140625 208.882812 217.898438 208.585938 217.6875 208.269531 C 217.472656 207.949219 217.292969 207.613281 217.148438 207.257812 C 217 206.902344 216.890625 206.539062 216.816406 206.160156 C 216.738281 205.785156 216.703125 205.40625 216.703125 205.023438 C 216.703125 204.640625 216.738281 204.257812 216.816406 203.882812 C 216.890625 203.507812 217 203.140625 217.148438 202.785156 C 217.292969 202.433594 217.472656 202.097656 217.6875 201.777344 C 217.898438 201.457031 218.140625 201.164062 218.414062 200.890625 C 218.683594 200.621094 218.980469 200.378906 219.296875 200.164062 C 219.617188 199.953125 219.953125 199.773438 220.308594 199.625 C 220.664062 199.480469 221.027344 199.367188 221.40625 199.292969 C 221.78125 199.21875 222.160156 199.179688 222.542969 199.179688 L 245.910156 199.179688 C 246.292969 199.179688 246.671875 199.21875 247.050781 199.292969 C 247.425781 199.367188 247.792969 199.476562 248.144531 199.625 C 248.5 199.769531 248.835938 199.953125 249.15625 200.164062 C 249.476562 200.378906 249.769531 200.621094 250.042969 200.890625 C 250.3125 201.164062 250.554688 201.457031 250.769531 201.777344 C 250.980469 202.09375 251.160156 202.433594 251.308594 202.785156 C 251.453125 203.140625 251.566406 203.507812 251.640625 203.882812 C 251.714844 204.257812 251.75 204.640625 251.75 205.023438 Z M 251.75 205.023438 " fill-opacity="1" fill-rule="nonzero"/></g></svg>