<svg xmlns="http://www.w3.org/2000/svg" xmlns:xlink="http://www.w3.org/1999/xlink" width="500" zoomAndPan="magnify" viewBox="0 0 375 374.999991" height="500" preserveAspectRatio="xMidYMid meet" version="1.0"><defs><clipPath id="57634efade"><path d="M 285 205 L 329.980469 205 L 329.980469 233 L 285 233 Z M 285 205 " clip-rule="nonzero"/></clipPath><clipPath id="af62a146a0"><path d="M 196 249 L 259 249 L 259 307.425781 L 196 307.425781 Z M 196 249 " clip-rule="nonzero"/></clipPath><clipPath id="bd34c0c6c4"><path d="M 45 67.425781 L 255 67.425781 L 255 224 L 45 224 Z M 45 67.425781 " clip-rule="nonzero"/></clipPath></defs><path fill="#ffffff" d="M 267.792969 196.46875 L 205.578125 196.46875 C 200.667969 196.46875 196.691406 200.445312 196.691406 205.355469 L 196.691406 232.019531 C 196.691406 236.929688 200.667969 240.90625 205.578125 240.90625 L 267.792969 240.90625 C 272.703125 240.90625 276.679688 236.929688 276.679688 232.019531 L 276.679688 205.355469 C 276.679688 200.445312 272.703125 196.46875 267.792969 196.46875 Z M 223.355469 223.132812 C 223.355469 225.585938 221.363281 227.574219 218.910156 227.574219 C 216.453125 227.574219 214.464844 225.585938 214.464844 223.132812 L 214.464844 214.242188 C 214.464844 211.789062 216.453125 209.800781 218.910156 209.800781 C 221.363281 209.800781 223.355469 211.789062 223.355469 214.242188 Z M 236.683594 223.132812 C 236.683594 225.585938 234.695312 227.574219 232.242188 227.574219 C 229.785156 227.574219 227.796875 225.585938 227.796875 223.132812 L 227.796875 214.242188 C 227.796875 211.789062 229.785156 209.800781 232.242188 209.800781 C 234.695312 209.800781 236.683594 211.789062 236.683594 214.242188 Z M 236.683594 223.132812 " fill-opacity="1" fill-rule="nonzero"/><g clip-path="url(#57634efade)"><path fill="#ffffff" d="M 325.566406 214.242188 L 294.457031 214.242188 L 294.457031 209.800781 C 294.457031 207.34375 292.46875 205.355469 290.011719 205.355469 L 285.570312 205.355469 L 285.570312 232.019531 L 290.011719 232.019531 C 292.46875 232.019531 294.457031 230.03125 294.457031 227.574219 L 294.457031 223.132812 L 325.566406 223.132812 C 328.019531 223.132812 330.007812 221.140625 330.007812 218.6875 C 330.007812 216.230469 328.019531 214.242188 325.566406 214.242188 Z M 325.566406 214.242188 " fill-opacity="1" fill-rule="nonzero"/></g><g clip-path="url(#af62a146a0)"><path fill="#ffffff" d="M 254.460938 289.789062 L 228.773438 289.789062 L 234.996094 249.792969 L 208.15625 249.792969 L 201.933594 289.789062 L 201.132812 289.789062 C 198.679688 289.789062 196.691406 291.777344 196.691406 294.234375 L 196.691406 303.121094 C 196.691406 305.578125 198.679688 307.566406 201.132812 307.566406 L 254.460938 307.566406 C 256.917969 307.566406 258.90625 305.578125 258.90625 303.121094 L 258.90625 294.234375 C 258.90625 291.777344 256.917969 289.789062 254.460938 289.789062 Z M 254.460938 289.789062 " fill-opacity="1" fill-rule="nonzero"/></g><path fill="#ffffff" d="M 254.460938 263.125 L 254.460938 249.792969 L 243.988281 249.792969 L 241.222656 267.570312 L 250.015625 267.570312 C 252.472656 267.570312 254.460938 265.582031 254.460938 263.125 Z M 254.460938 263.125 " fill-opacity="1" fill-rule="nonzero"/><path fill="#ffffff" d="M 90.035156 169.804688 L 116.699219 169.804688 L 116.699219 196.46875 L 90.035156 196.46875 Z M 90.035156 169.804688 " fill-opacity="1" fill-rule="nonzero"/><path fill="#ffffff" d="M 143.363281 187.578125 L 152.25 187.578125 L 152.25 223.132812 L 143.363281 223.132812 Z M 143.363281 187.578125 " fill-opacity="1" fill-rule="nonzero"/><path fill="#ffffff" d="M 205.578125 169.804688 L 178.914062 169.804688 L 178.914062 196.46875 L 190.195312 196.46875 C 193.273438 191.164062 199.015625 187.578125 205.578125 187.578125 Z M 205.578125 169.804688 " fill-opacity="1" fill-rule="nonzero"/><g clip-path="url(#bd34c0c6c4)"><path fill="#ffffff" d="M 170.027344 200.910156 L 170.027344 165.359375 C 170.027344 162.90625 172.015625 160.914062 174.46875 160.914062 L 210.023438 160.914062 C 212.476562 160.914062 214.464844 162.90625 214.464844 165.359375 L 214.464844 187.578125 L 232.242188 187.578125 L 232.242188 121.101562 L 247.960938 129.308594 C 248.617188 129.652344 249.324219 129.8125 250.011719 129.8125 C 251.617188 129.8125 253.160156 128.941406 253.957031 127.425781 C 255.089844 125.246094 254.25 122.5625 252.074219 121.429688 L 149.863281 68.097656 C 148.550781 67.414062 146.980469 67.425781 145.679688 68.136719 L 47.910156 121.464844 C 45.757812 122.640625 44.960938 125.339844 46.140625 127.492188 C 47.316406 129.648438 50.011719 130.441406 52.167969 129.261719 L 63.371094 123.152344 L 63.371094 218.6875 C 63.371094 221.140625 65.359375 223.132812 67.816406 223.132812 L 134.472656 223.132812 L 134.472656 183.136719 C 134.472656 180.679688 136.464844 178.691406 138.917969 178.691406 L 156.695312 178.691406 C 159.148438 178.691406 161.136719 180.679688 161.136719 183.136719 L 161.136719 223.132812 L 187.800781 223.132812 L 187.800781 205.355469 L 174.46875 205.355469 C 172.015625 205.355469 170.027344 203.367188 170.027344 200.910156 Z M 125.585938 200.910156 C 125.585938 203.367188 123.597656 205.355469 121.140625 205.355469 L 85.589844 205.355469 C 83.136719 205.355469 81.148438 203.367188 81.148438 200.910156 L 81.148438 165.359375 C 81.148438 162.90625 83.136719 160.914062 85.589844 160.914062 L 121.140625 160.914062 C 123.597656 160.914062 125.585938 162.90625 125.585938 165.359375 Z M 156.695312 169.804688 L 138.917969 169.804688 C 136.464844 169.804688 134.472656 167.816406 134.472656 165.359375 C 134.472656 162.90625 136.464844 160.914062 138.917969 160.914062 L 156.695312 160.914062 C 159.148438 160.914062 161.136719 162.90625 161.136719 165.359375 C 161.136719 167.816406 159.148438 169.804688 156.695312 169.804688 Z M 143.363281 143.140625 C 143.363281 140.683594 145.351562 138.695312 147.804688 138.695312 C 150.261719 138.695312 152.25 140.683594 152.25 143.140625 C 152.25 145.59375 150.261719 147.582031 147.804688 147.582031 C 145.351562 147.582031 143.363281 145.59375 143.363281 143.140625 Z M 163.515625 133.714844 C 162.648438 134.578125 161.511719 135.011719 160.371094 135.011719 C 159.234375 135.011719 158.097656 134.578125 157.226562 133.714844 C 152.027344 128.511719 143.574219 128.511719 138.375 133.714844 C 136.640625 135.445312 133.824219 135.445312 132.089844 133.714844 C 130.359375 131.980469 130.359375 129.164062 132.089844 127.429688 C 140.757812 118.765625 154.851562 118.765625 163.515625 127.429688 C 165.25 129.164062 165.25 131.980469 163.515625 133.714844 Z M 125.808594 121.140625 C 124.074219 122.875 121.257812 122.875 119.527344 121.140625 C 117.792969 119.410156 117.792969 116.59375 119.527344 114.859375 C 135.117188 99.265625 160.492188 99.265625 176.085938 114.859375 C 177.820312 116.59375 177.820312 119.410156 176.085938 121.140625 C 175.21875 122.007812 174.082031 122.441406 172.941406 122.441406 C 171.804688 122.441406 170.671875 122.007812 169.796875 121.140625 C 157.671875 109.015625 137.933594 109.015625 125.804688 121.140625 Z M 125.808594 121.140625 " fill-opacity="1" fill-rule="nonzero"/></g></svg>